<svg xmlns="http://www.w3.org/2000/svg" viewBox="0 0 16.9 16.9"><path fill="#ffb380" stroke="#000" stroke-width=".3" d="M7.8.7c-.9 0-1.7.3-2.5.7A7.8 7.8 0 0 0 .8 9.9c.2 1.1.5 2 1.3 2.7L.2 16.8l4-1.8c.7.5.9.6 1.7.8A7.8 7.8 0 1 0 7.9.7h-.1z"/><g fill="none" stroke="#fff" stroke-width="1.9"><path d="M8.5 6.4v5.3"/><path stroke-linejoin="round" d="M4.3 9.9c0-2.1 1-2.7 2-2.6 1.2 0 2.2-.3 2.2-1.6 0 1.3 1 1.6 2 1.6s2.1.8 2.1 2.6"/></g><g fill="none" stroke-width="1.3"><path stroke="#ccc" d="M8.5 6.4v5.3"/><path stroke="#000" stroke-linejoin="round" d="M4.3 9.9c0-2.1 1-2.7 2-2.6 1.2 0 2.2-.3 2.2-1.6 0 1.3 1 1.6 2 1.6s2.1.8 2.1 2.6"/></g></svg>